HIERARCHY
ROOT hip
{
  OFFSET 138.146 83.8119 6.21729
  CHANNELS 6 Xposition Yposition Zposition Zrotation Xrotation Yrotation
  JOINT abdomen
  {
    OFFSET 0 20.6881 -0.73152
    CHANNELS 3 Zrotation Xrotation Yrotation
    JOINT chest
    {
      OFFSET 0 11.7043 -0.48768
      CHANNELS 3 Zrotation Xrotation Yrotation
      JOINT neck
      {
        OFFSET 0 22.1894 -2.19456
        CHANNELS 3 Zrotation Xrotation Yrotation
        JOINT head
        {
          OFFSET -0.24384 7.07133 1.2192
          CHANNELS 3 Zrotation Xrotation Yrotation
          JOINT leftEye
          {
            OFFSET 4.14528 8.04674 8.04672
            CHANNELS 3 Zrotation Xrotation Yrotation
            End Site
            {
              OFFSET 1 0 0
            }
          }
          JOINT rightEye
          {
            OFFSET -3.6576 8.04674 8.04672
            CHANNELS 3 Zrotation Xrotation Yrotation
            End Site
            {
              OFFSET 1 0 0
            }
          }
        }
      }
      JOINT rCollar
      {
        OFFSET -2.68224 19.2634 -4.8768
        CHANNELS 3 Zrotation Xrotation Yrotation
        JOINT rShldr
        {
          OFFSET -8.77824 -1.95073 1.46304
          CHANNELS 3 Zrotation Xrotation Yrotation
          JOINT rForeArm
          {
            OFFSET -28.1742 -1.7115 0.48768
            CHANNELS 3 Zrotation Xrotation Yrotation
            JOINT rHand
            {
              OFFSET -22.5879 0.773209 7.07136
              CHANNELS 3 Zrotation Xrotation Yrotation
              JOINT rThumb1
              {
                OFFSET -1.2192 -0.487915 3.41376
                CHANNELS 3 Zrotation Xrotation Yrotation
                JOINT rThumb2
                {
                  OFFSET -3.37035 -0.52449 3.41376
                  CHANNELS 3 Zrotation Xrotation Yrotation
                  End Site
                  {
                    OFFSET -1.78271 -1.18214 1.43049
                  }
                }
              }
              JOINT rIndex1
              {
                OFFSET -7.75947 0.938293 5.60832
                CHANNELS 3 Zrotation Xrotation Yrotation
                JOINT rIndex2
                {
                  OFFSET -2.54057 -0.884171 1.56538
                  CHANNELS 3 Zrotation Xrotation Yrotation
                  End Site
                  {
                    OFFSET -1.62519 -0.234802 1.16502
                  }
                }
              }
              JOINT rMid1
              {
                OFFSET -8.24714 1.18213 3.41376
                CHANNELS 3 Zrotation Xrotation Yrotation
                JOINT rMid2
                {
                  OFFSET -3.10165 -0.590103 1.0647
                  CHANNELS 3 Zrotation Xrotation Yrotation
                  End Site
                  {
                    OFFSET -2.48547 -0.328903 0.83742
                  }
                }
              }
              JOINT rRing1
              {
                OFFSET -8.82822 0.546677 1.51678
                CHANNELS 3 Zrotation Xrotation Yrotation
                JOINT rRing2
                {
                  OFFSET -2.60934 -0.819778 -0.0198488
                  CHANNELS 3 Zrotation Xrotation Yrotation
                  End Site
                  {
                    OFFSET -2.33842 -0.294052 0.168128
                  }
                }
              }
              JOINT rPinky1
              {
                OFFSET -8.27202 -0.0477905 -0.4584
                CHANNELS 3 Zrotation Xrotation Yrotation
                JOINT rPinky2
                {
                  OFFSET -1.82734 -0.647385 -0.700984
                  CHANNELS 3 Zrotation Xrotation Yrotation
                  End Site
                  {
                    OFFSET -1.69225 -0.51767 -0.607171
                  }
                }
              }
            }
          }
        }
      }
      JOINT lCollar
      {
        OFFSET 2.68224 19.2634 -4.8768
        CHANNELS 3 Zrotation Xrotation Yrotation
        JOINT lShldr
        {
          OFFSET 8.77824 -1.95073 1.46304
          CHANNELS 3 Zrotation Xrotation Yrotation
          JOINT lForeArm
          {
            OFFSET 28.1742 -1.7115 0.48768
            CHANNELS 3 Zrotation Xrotation Yrotation
            JOINT lHand
            {
              OFFSET 22.5879 0.773209 7.07136
              CHANNELS 3 Zrotation Xrotation Yrotation
              JOINT lThumb1
              {
                OFFSET 1.2192 -0.487915 3.41376
                CHANNELS 3 Zrotation Xrotation Yrotation
                JOINT lThumb2
                {
                  OFFSET 3.37035 -0.52449 3.41376
                  CHANNELS 3 Zrotation Xrotation Yrotation
                  End Site
                  {
                    OFFSET 1.78271 -1.18214 1.43049
                  }
                }
              }
              JOINT lIndex1
              {
                OFFSET 7.75947 0.938293 5.60832
                CHANNELS 3 Zrotation Xrotation Yrotation
                JOINT lIndex2
                {
                  OFFSET 2.54057 -0.884171 1.56538
                  CHANNELS 3 Zrotation Xrotation Yrotation
                  End Site
                  {
                    OFFSET 1.62519 -0.234802 1.16502
                  }
                }
              }
              JOINT lMid1
              {
                OFFSET 8.24714 1.18213 3.41376
                CHANNELS 3 Zrotation Xrotation Yrotation
                JOINT lMid2
                {
                  OFFSET 3.10165 -0.590103 1.0647
                  CHANNELS 3 Zrotation Xrotation Yrotation
                  End Site
                  {
                    OFFSET 2.48547 -0.328903 0.83742
                  }
                }
              }
              JOINT lRing1
              {
                OFFSET 8.82822 0.546677 1.51678
                CHANNELS 3 Zrotation Xrotation Yrotation
                JOINT lRing2
                {
                  OFFSET 2.60934 -0.819778 -0.0198488
                  CHANNELS 3 Zrotation Xrotation Yrotation
                  End Site
                  {
                    OFFSET 2.33842 -0.294052 0.168128
                  }
                }
              }
              JOINT lPinky1
              {
                OFFSET 8.27202 -0.0477905 -0.4584
                CHANNELS 3 Zrotation Xrotation Yrotation
                JOINT lPinky2
                {
                  OFFSET 1.82734 -0.647385 -0.700984
                  CHANNELS 3 Zrotation Xrotation Yrotation
                  End Site
                  {
                    OFFSET 1.69225 -0.51767 -0.607171
                  }
                }
              }
            }
          }
        }
      }
    }
  }
  JOINT rButtock
  {
    OFFSET -8.77824 4.35084 1.2192
    CHANNELS 3 Zrotation Xrotation Yrotation
    JOINT rThigh
    {
      OFFSET 0 -1.70687 -2.19456
      CHANNELS 3 Zrotation Xrotation Yrotation
      JOINT rShin
      {
        OFFSET 0 -36.8199 0.73152
        CHANNELS 3 Zrotation Xrotation Yrotation
        JOINT rFoot
        {
          OFFSET 0.73152 -45.1104 -5.12064
          CHANNELS 3 Zrotation Xrotation Yrotation
          End Site
          {
            OFFSET -1.1221 -3.69964 12.103
          }
        }
      }
    }
  }
  JOINT lButtock
  {
    OFFSET 8.77824 4.35084 1.2192
    CHANNELS 3 Zrotation Xrotation Yrotation
    JOINT lThigh
    {
      OFFSET 0 -1.70687 -2.19456
      CHANNELS 3 Zrotation Xrotation Yrotation
      JOINT lShin
      {
        OFFSET 0 -36.8199 0.73152
        CHANNELS 3 Zrotation Xrotation Yrotation
        JOINT lFoot
        {
          OFFSET -0.73152 -45.1104 -5.12064
          CHANNELS 3 Zrotation Xrotation Yrotation
          End Site
          {
            OFFSET 1.1221 -3.69964 12.103
          }
        }
      }
    }
  }
}
MOTION
Frames:	4
Frame Time:	0.00833333
135.479 85.1237 34.4882 -0.330516 -0.0106499 0.00540071 0.435971 -0.0238512 0.0128201 0.121275 -0.0396248 0.0210492 1.14733e-015 2.38542e-015 6.21202e-018 3.52998e-015 1.59028e-014 2.32951e-017 -0 0 0 -0 0 0 7.94257e-016 7.29912e-017 9.93923e-017 1.34656e-014 1.55922e-015 1.19271e-015 2.1921e-013 -3.18055e-015 3.18055e-015 2.38991e-012 3.64745e-013 3.18055e-014 5.6561e-012 7.83112e-013 6.67917e-014 9.7643e-012 1.35492e-012 1.20861e-013 5.65781e-012 7.82814e-013 6.04305e-014 7.73091 5.47488 0.417314 5.65562e-012 7.82814e-013 6.99722e-014 2.90554 0.965183 0.102902 5.65449e-012 7.83212e-013 6.75868e-014 10.2786 0.731801 0.0259123 5.64588e-012 7.85995e-013 7.95139e-014 2.22167 -0.733487 -0.20892 4.97879e-016 7.4156e-017 -9.93923e-017 1.11927e-014 1.6524e-015 -7.95139e-016 1.99679e-013 1.23644e-013 1.27222e-014 2.40336e-012 2.45151e-013 1.90833e-014 5.64796e-012 7.95772e-013 7.31528e-014 9.76072e-012 1.37718e-012 1.22451e-013 5.6435e-012 7.94741e-013 8.5875e-014 -7.73091 5.47488 -0.417314 5.64881e-012 7.95337e-013 6.67917e-014 -2.90554 0.965183 -0.102902 5.64595e-012 7.95536e-013 7.15625e-014 -10.2786 0.731801 -0.0259123 5.65383e-012 7.98319e-013 6.36111e-014 -2.22167 -0.733487 0.20892 -2.03217e-016 0 -3.88251e-019 0.65197 -4.7111 -0.0694764 -0.000843952 2.99807 0.00382003 -0.326363 1.72324 0.0697856 2.03217e-016 0 3.88251e-019 0.0331293 -2.68025 0.0231603 0.00579506 -0.679756 0.0505428 0.29617 3.3702 -0.0966813 
137.37 83.4061 17.5318 0.175102 1.51467 -49.1664 2.03591 -1.45701 1.70121 -0.345325 -3.61264 0.59238 2.75563 1.25244 1.93703 0.351353 2.43549 2.35294 -0 0 0 -0 0 0 3.79002e-014 1.84028e-014 -1.05942e-014 20.0234 8.95561 -4.90917 -4.95282 -2.41854 7.5447 0.0127414 -2.50993 -0.351536 -1.09233e-010 2.56292e-010 -2.41069e-010 -1.86997e-010 4.41554e-010 -4.17898e-010 -1.09229e-010 2.56289e-010 -2.41078e-010 7.73091 5.47488 0.417314 -1.09232e-010 2.5629e-010 -2.41068e-010 2.90554 0.965183 0.102902 -1.09231e-010 2.5629e-010 -2.41069e-010 10.2786 0.731801 0.0259123 -1.0924e-010 2.56292e-010 -2.41059e-010 2.22167 -0.733487 -0.20892 3.76661e-014 1.84047e-014 -1.08225e-014 -20.1536 8.33002 3.00006 4.05633 -1.81172 -6.36922 -0.0282444 3.72976 -0.520181 -4.12438e-010 -2.90479e-010 -3.59549e-013 -7.12314e-010 -4.99676e-010 4.8122e-012 -4.12442e-010 -2.90479e-010 -3.4479e-013 -7.73091 5.47488 -0.417314 -4.12436e-010 -2.90479e-010 -3.62214e-013 -2.90554 0.965183 -0.102902 -4.12439e-010 -2.90478e-010 -3.59549e-013 -10.2786 0.731801 -0.0259123 -4.12433e-010 -2.90475e-010 -3.68072e-013 -2.22167 -0.733487 0.20892 -2.03217e-016 0 -3.88251e-019 5.30355 -5.93507 5.18873 -0.00373266 4.04826 -0.0446853 0.424364 -3.68013 -5.64852 2.03217e-016 0 3.88251e-019 -0.27752 -3.98455 -4.71907 0.00639986 1.36916 0.00341005 -0.249763 -1.54923 -1.32386 
137.303 83.5526 17.3436 1.78043 -0.917715 -101.063 3.83573 -2.95044 3.48193 -0.757389 -7.39128 1.20152 5.58399 2.57136 3.99567 0.520346 5.0232 4.86113 -0 0 0 -0 0 0 7.94607e-014 3.49175e-014 -2.31242e-014 42.9267 18.1754 -10.5089 -9.49838 -4.83231 15.5573 -0.00738596 -5.14349 -0.72268 -2.48998e-010 5.29126e-010 -4.98736e-010 -4.26546e-010 9.1152e-010 -8.64727e-010 -2.48992e-010 5.29122e-010 -4.98748e-010 7.73091 5.47488 0.417314 -2.48997e-010 5.29123e-010 -4.98736e-010 2.90554 0.965183 0.102902 -2.48993e-010 5.29123e-010 -4.98738e-010 10.2786 0.731801 0.0259123 -2.49003e-010 5.29124e-010 -4.98729e-010 2.22167 -0.733487 -0.20892 7.92927e-014 3.49202e-014 -2.33852e-014 -42.4554 17.0841 6.38857 7.90774 -3.65118 -13.1201 0.016116 7.66524 -1.07657 -8.57436e-010 -6.17601e-010 -2.33123e-011 -1.48109e-009 -1.06273e-009 -2.90471e-011 -8.5744e-010 -6.17601e-010 -2.32952e-011 -7.73091 5.47488 -0.417314 -8.57433e-010 -6.17602e-010 -2.33109e-011 -2.90554 0.965183 -0.102902 -8.57436e-010 -6.17599e-010 -2.33105e-011 -10.2786 0.731801 -0.0259123 -8.57432e-010 -6.17596e-010 -2.33196e-011 -2.22167 -0.733487 0.20892 -2.03217e-016 0 -3.88251e-019 10.4817 -7.15887 10.7755 -0.00484175 5.17936 -0.095707 0.0419084 -9.25072 -11.822 2.03217e-016 0 3.88251e-019 -0.834714 -5.34429 -9.75765 0.0108385 3.60314 -0.0483081 -1.0622 -6.7605 -2.66217 
137.224 83.6785 17.1965 -0.305971 -5.86917 -147.248 5.48943 -4.30827 5.09077 -1.0615 -10.7543 1.76247 8.01286 3.74013 5.82215 0.451529 7.25701 7.10968 -0 0 0 -0 0 0 1.12112e-013 5.50623e-014 -3.19814e-014 65.0542 26.0334 -16.2332 -12.9918 -6.75349 22.7807 -0.0548515 -7.52865 -1.06276 -3.3901e-010 7.67308e-010 -7.23341e-010 -5.80519e-010 1.32195e-009 -1.25393e-009 -3.39002e-010 7.67303e-010 -7.23355e-010 7.73091 5.47488 0.417314 -3.39008e-010 7.67304e-010 -7.23343e-010 2.90554 0.965183 0.102902 -3.39002e-010 7.67304e-010 -7.23343e-010 10.2786 0.731801 0.0259123 -3.39013e-010 7.67305e-010 -7.23336e-010 2.22167 -0.733487 -0.20892 1.12003e-013 5.50659e-014 -3.22687e-014 -63.2888 24.7019 9.81053 10.9814 -5.16705 -19.179 0.121761 11.1856 -1.5874 -1.24861e-009 -8.73027e-010 -1.22496e-012 -2.15646e-009 -1.50178e-009 1.41917e-011 -1.24861e-009 -8.73027e-010 -1.20612e-012 -7.73091 5.47488 -0.417314 -1.24861e-009 -8.73028e-010 -1.22022e-012 -2.90554 0.965183 -0.102902 -1.24861e-009 -8.73024e-010 -1.22177e-012 -10.2786 0.731801 -0.0259123 -1.24861e-009 -8.73022e-010 -1.23144e-012 -2.22167 -0.733487 0.20892 -2.03217e-016 0 -3.88251e-019 15.2737 -8.14126 15.7842 -0.00414614 6.14862 -0.142169 -1.33616 -13.8884 -17.5799 2.03217e-016 0 3.88251e-019 -1.54137 -6.431 -14.2608 0.0177483 5.46697 -0.0912663 -1.98314 -11.3643 -3.85275 
